<svg id="Layer_1" enable-background="new 0 0 508.002 508.002" height="512" viewBox="0 0 508.002 508.002" width="512" xmlns="http://www.w3.org/2000/svg"><path d="m466.413 157.311c-16.686-3.243-33.311-6.802-49.981-10.134-32.245-6.446-62.915-4.333-90.185 16.556-4.143 3.174-8.714 5.788-13.613 9.007-8.283-14.266-7.322-20.601-15.286-34.309-6.455-11.11-23.647-12.986-33.203-7.812-9.54 5.165-16.273 20.104-10.433 31.307 10.311 19.778 20.65 39.543 31.021 59.289 7.559 14.391 19.026 17.36 32.903 8.599 6.811-4.3 25.189-14.802 32.904-19.67-.843 19.501-1.513 37.564-2.551 55.606-.121 2.109-2.053 4.276-3.516 6.122-12.909 16.286-30.793 39.192-44.953 54.314-13.846 14.788-21.147 34.222-14.675 53.443 7.733 22.965 12.765 46.834 19.15 70.262 2.918 10.707 12.875 22.979 31.944 17.507s19.073-24.91 17.523-35.813c-2.766-19.468-2.616-27.072-12.298-68.572 8.551 2.094 15.964 4.586 23.572 5.554 5.789.737 7.507 3.505 8.588 8.585 6.02 28.29 12.185 56.551 18.59 84.756 2.303 10.141 15.137 18.082 27.335 14.551 12.198-3.53 19.036-14.322 17.658-24.449-3.365-24.747-1.329-7.81-12.173-88.528 14.109-5.561 27.537-10.853 41.477-16.348-8.049-18.75-25.822-33.246-34.183-50.222-8.638-17.539-14.069-35.063-8.331-54.564.03-.103-.548 3.753 5.551-44.815 9.903 1.606 11.729 3.082 21.304 4.635-2.137 14.945-4.415 29.308-6.177 43.735-1.21 9.906 3.516 25.705 19.376 28.348s30.529-13.702 32.849-23.828c4.439-19.369 6.031-27.56 10.706-46.874 5.722-23.63-25.356-43.219-40.893-46.238z"/><path d="m176.945 204.635c2.369-11.306 5.107-22.29 13.093-31.357 9.123-10.358 83.389-96.783 94.667-110.135 16.762-19.845-9.783-45.415-29.104-24.871-26.203 27.86-52.52 55.612-78.743 83.453-15.371 16.32-23.826 11.486-136.259 36.964-8.401 1.904-14.651 6.263-17.038 14.805-6.474 23.169-12.804 46.379-19.113 69.594-2.906 10.692.043 20.436 10.323 23.595 10.012 3.077 28.032-2.096 31.82-12.306 6.524-17.583 13.295-35.074 20.071-52.561.575-1.482 1.784-3.567 3.012-3.815 10.525-2.122 21.123-3.884 32.588-5.911-5.519 25.829-10.452 50.659-16.221 75.294-2.223 9.492-1.657 17.896 1.682 25.415-25.885 46.125-61.796 110.707-85.436 153.367-5.382 9.713-.781 22.123 8.737 27.508 9.758 5.521 21.915 3.252 28.215-6.303 24.281-36.83 59.675-94.996 86.113-136.209 10.207 9.171 20.39 18.368 30.478 27.668 2.825 2.604 5.152 6.639 5.966 10.391 6.459 29.77 12.523 59.626 18.646 89.469 1.644 8.01 6.05 13.689 13.765 16.433 16.082 5.72 29.591-7.398 27.227-26.209-4.324-34.41-8.295-68.868-13.099-103.209-2.276-16.273-13.876-23.351-44.259-57.974-1.934-2.204-3.171-6.368-2.608-9.206 4.892-24.684 10.317-49.26 15.477-73.89z"/><path d="m135.602 129.153c20.895.027 38.105-16.923 38.313-37.736.215-21.432-17.266-39.057-38.584-38.902-21.234.154-38.288 17.314-38.278 38.515.011 21.147 17.149 38.096 38.549 38.123z"/><path d="m382.834 141.12c20.422.128 36.803-15.903 36.974-36.183.171-20.317-16.009-36.982-36.083-37.166-20.757-.19-37.202 15.966-37.243 36.59-.041 20.491 15.92 36.63 36.352 36.759z"/></svg>