<svg id="Capa_1" enable-background="new 0 0 512 512" height="512" viewBox="0 0 512 512" width="512" xmlns="http://www.w3.org/2000/svg"><g><path d="m451 15c0-8.284-6.716-15-15-15h-360c-8.284 0-15 6.716-15 15v272c0 8.284 6.716 15 15 15h360c8.284 0 15-6.716 15-15zm-360 75h150v122h-150zm180-30v-30h60v30zm-30 0h-60v-30h60zm0 182v30h-60v-30zm30 0h60v30h-60zm0-30v-122h150v122zm150-152h-60v-30h60zm-270-30v30h-60v-30zm-60 212h60v30h-60zm270 30v-30h60v30z"/><path d="m436 452h-77.58c-6.192-17.459-22.865-30-42.42-30s-36.228 12.541-42.42 30h-197.58c-8.284 0-15 6.716-15 15s6.716 15 15 15h197.58c6.192 17.459 22.865 30 42.42 30s36.228-12.541 42.42-30h77.58c8.284 0 15-6.716 15-15s-6.716-15-15-15zm-120 30c-8.271 0-15-6.729-15-15s6.729-15 15-15 15 6.729 15 15-6.729 15-15 15z"/><path d="m436 362h-227.58c-6.192-17.459-22.865-30-42.42-30s-36.228 12.541-42.42 30h-47.58c-8.284 0-15 6.716-15 15s6.716 15 15 15h47.58c6.192 17.459 22.865 30 42.42 30s36.228-12.541 42.42-30h227.58c8.284 0 15-6.716 15-15s-6.716-15-15-15zm-270 30c-8.271 0-15-6.729-15-15s6.729-15 15-15c8.269 0 14.997 6.726 15 14.995v.005s0 .003 0 .005c-.003 8.269-6.731 14.995-15 14.995z"/></g></svg>