<?xml version="1.0"?>
<svg xmlns="http://www.w3.org/2000/svg" viewBox="0 0 26 26" enable-background="new 0 0 26 26">
    <path d="M 14 0 C 11.250421 0 9 2.2504209 9 5 C 9 7.7495791 11.250421 10 14 10 C 16.749579 10 19 7.7495791 19 5 C 19 2.2504209 16.749579 0 14 0 z M 14 10 L 5 10 C 3.9 10 3 10.9 3 12 L 3 20 C 3 21.1 3.9 22 5 22 L 7.40625 22 L 5 26 L 7 26 L 10 22.25 L 13 26 L 15 26 L 12.59375 22 L 16 22 C 17.1 22 18 21.1 18 20 L 18 12 C 18 10.9 17.1 10 16 10 L 14 10 z M 5 10 C 7.1972944 10 9 8.1972944 9 6 C 9 3.8027056 7.1972944 2 5 2 C 2.8027056 2 1 3.8027056 1 6 C 1 8.1972944 2.8027056 10 5 10 z M 14 2 C 15.668699 2 17 3.3313011 17 5 C 17 6.6686989 15.668699 8 14 8 C 12.331301 8 11 6.6686989 11 5 C 11 3.3313011 12.331301 2 14 2 z M 5 4 C 6.116414 4 7 4.883586 7 6 C 7 7.116414 6.116414 8 5 8 C 3.883586 8 3 7.116414 3 6 C 3 4.883586 3.883586 4 5 4 z M 24 10 L 19 13 L 19 19 L 24 22 L 24 10 z"/>
</svg>
